# This file uses centimeters as units for non-parametric coordinates.

mtllib big-tree.mtl
g default
v 1.303004 1.533717 -1.248275
v 0.152588 1.533717 -1.912468
v -1.155618 1.533717 -1.681797
v -2.009488 1.533717 -0.664193
v -2.009488 2.023621 0.664193
v -1.155618 1.533717 1.681796
v 0.152587 1.533717 1.912468
v 1.303004 1.958011 1.248275
v 1.757339 1.533717 0.000000
v -0.171068 4.517992 0.022606
vt 0.691511 0.089303
vt 0.543412 0.003798
vt 0.375000 0.033494
vt 0.265077 0.164495
vt 0.265077 0.335505
vt 0.375000 0.466506
vt 0.543412 0.496202
vt 0.691511 0.410697
vt 0.750000 0.250000
vt 0.250000 0.500000
vt 0.305556 0.500000
vt 0.361111 0.500000
vt 0.416667 0.500000
vt 0.472222 0.500000
vt 0.527778 0.500000
vt 0.583333 0.500000
vt 0.638889 0.500000
vt 0.694445 0.500000
vt 0.750000 0.500000
vt 0.500000 1.000000
vn -0.015465 -0.998614 0.050313
vn -0.015465 -0.998614 0.050313
vn -0.015465 -0.998614 0.050313
vn -0.015465 -0.998614 0.050313
vn -0.015465 -0.998614 0.050313
vn -0.015465 -0.998614 0.050313
vn -0.015465 -0.998614 0.050313
vn -0.015465 -0.998614 0.050313
vn -0.015465 -0.998614 0.050313
vn 0.425755 0.524341 -0.737428
vn 0.425755 0.524340 -0.737428
vn 0.425755 0.524341 -0.737428
vn -0.147601 0.526780 -0.837088
vn -0.147601 0.526780 -0.837088
vn -0.147601 0.526780 -0.837088
vn -0.651109 0.526842 -0.546346
vn -0.651109 0.526842 -0.546346
vn -0.651109 0.526842 -0.546346
vn -0.812500 0.546951 -0.201713
vn -0.812500 0.546951 -0.201713
vn -0.812500 0.546951 -0.201713
vn -0.497545 0.541093 0.677988
vn -0.497545 0.541093 0.677988
vn -0.497545 0.541093 0.677988
vn -0.148585 0.517525 0.842668
vn -0.148585 0.517525 0.842668
vn -0.148585 0.517525 0.842668
vn 0.264919 0.536244 0.801411
vn 0.264919 0.536244 0.801411
vn 0.264919 0.536244 0.801411
vn 0.834178 0.538123 0.120706
vn 0.834178 0.538123 0.120706
vn 0.834178 0.538123 0.120706
vn 0.802287 0.520641 -0.292008
vn 0.802287 0.520641 -0.292008
vn 0.802287 0.520641 -0.292008
s off
g pCone1
usemtl initialShadingGroup
f 1/1/1 9/9/2 8/8/3 7/7/4 6/6/5 5/5/6 4/4/7 3/3/8 2/2/9
f 1/10/10 2/11/11 10/20/12
f 2/11/13 3/12/14 10/20/15
f 3/12/16 4/13/17 10/20/18
f 4/13/19 5/14/20 10/20/21
f 5/14/22 6/15/23 10/20/24
f 6/15/25 7/16/26 10/20/27
f 7/16/28 8/17/29 10/20/30
f 8/17/31 9/18/32 10/20/33
f 9/18/34 1/19/35 10/20/36
g default
v 0.779002 2.556007 -1.426530
v -0.701950 3.151385 -1.744020
v -1.889580 2.732658 -0.813700
v -1.889580 3.104305 0.714675
v -0.701950 2.972415 1.667602
v 0.779002 2.807950 1.327506
v 1.438087 2.734757 -0.049512
v -0.203373 6.430179 -0.049512
vt 0.655872 0.054542
vt 0.444370 0.006268
vt 0.274758 0.141529
vt 0.274758 0.358471
vt 0.444370 0.493732
vt 0.655872 0.445458
vt 0.750000 0.250000
vt 0.250000 0.500000
vt 0.321429 0.500000
vt 0.392857 0.500000
vt 0.464286 0.500000
vt 0.535714 0.500000
vt 0.607143 0.500000
vt 0.678571 0.500000
vt 0.750000 0.500000
vt 0.500000 1.000000
vn -0.088235 -0.995654 0.029784
vn -0.088235 -0.995654 0.029784
vn -0.088235 -0.995654 0.029784
vn -0.088235 -0.995654 0.029784
vn -0.088235 -0.995654 0.029784
vn -0.088235 -0.995654 0.029784
vn -0.088235 -0.995654 0.029784
vn 0.340326 0.390355 -0.855454
vn 0.340326 0.390355 -0.855454
vn 0.340326 0.390355 -0.855454
vn -0.646244 0.425622 -0.633415
vn -0.646244 0.425623 -0.633415
vn -0.646244 0.425623 -0.633415
vn -0.896511 0.430477 -0.104677
vn -0.896511 0.430477 -0.104677
vn -0.896511 0.430477 -0.104677
vn -0.532982 0.436735 0.724702
vn -0.532982 0.436735 0.724702
vn -0.532982 0.436735 0.724702
vn 0.247115 0.402162 0.881589
vn 0.247115 0.402162 0.881589
vn 0.247115 0.402162 0.881589
vn 0.843845 0.374825 0.383968
vn 0.843845 0.374825 0.383968
vn 0.843845 0.374825 0.383968
vn 0.820634 0.364515 -0.440100
vn 0.820634 0.364515 -0.440100
vn 0.820634 0.364515 -0.440100
s off
g pCone2
usemtl initialShadingGroup
f 11/21/37 17/27/38 16/26/39 15/25/40 14/24/41 13/23/42 12/22/43
f 11/28/44 12/29/45 18/36/46
f 12/29/47 13/30/48 18/36/49
f 13/30/50 14/31/51 18/36/52
f 14/31/53 15/32/54 18/36/55
f 15/32/56 16/33/57 18/36/58
f 16/33/59 17/34/60 18/36/61
f 17/34/62 11/35/63 18/36/64
g default
v 0.300051 -0.070840 -0.251772
v 0.068016 -0.070840 -0.385738
v -0.195844 -0.070840 -0.339212
v -0.368067 -0.070840 -0.133965
v -0.368067 -0.070840 0.133965
v -0.195844 -0.070840 0.339212
v 0.068016 -0.070840 0.385738
v 0.300051 -0.070840 0.251772
v 0.391688 -0.070840 0.000000
v 0.140412 2.702679 -0.251772
v -0.091623 2.702679 -0.385738
v -0.355483 2.702679 -0.339212
v -0.527706 2.702679 -0.133965
v -0.527706 2.702679 0.133965
v -0.355483 2.702679 0.339212
v -0.091623 2.702679 0.385738
v 0.140412 2.702679 0.251772
v 0.232049 2.702679 0.000000
v 0.000000 -0.070840 0.000000
v -0.159639 2.702679 0.000000
v 0.232049 1.400273 0.000000
v 0.140412 1.400273 0.251772
v -0.091623 1.400273 0.385738
v -0.355483 1.400273 0.339212
v -0.527706 1.400273 0.133965
v -0.527706 1.400273 -0.133965
v -0.355483 1.400273 -0.339212
v -0.091623 1.400273 -0.385738
v 0.140412 1.400273 -0.251772
vt 0.619694 0.055814
vt 0.527133 0.002374
vt 0.421875 0.020934
vt 0.353173 0.102809
vt 0.353173 0.209691
vt 0.421875 0.291566
vt 0.527133 0.310126
vt 0.619694 0.256686
vt 0.656250 0.156250
vt 0.375000 0.312500
vt 0.402778 0.312500
vt 0.430556 0.312500
vt 0.458333 0.312500
vt 0.486111 0.312500
vt 0.513889 0.312500
vt 0.541667 0.312500
vt 0.569445 0.312500
vt 0.597222 0.312500
vt 0.625000 0.312500
vt 0.375000 0.688440
vt 0.402778 0.688440
vt 0.430556 0.688440
vt 0.458333 0.688440
vt 0.486111 0.688440
vt 0.513889 0.688440
vt 0.541667 0.688440
vt 0.569445 0.688440
vt 0.597222 0.688440
vt 0.625000 0.688440
vt 0.619694 0.743314
vt 0.527133 0.689874
vt 0.421875 0.708434
vt 0.353173 0.790309
vt 0.353173 0.897191
vt 0.421875 0.979066
vt 0.527133 0.997626
vt 0.619694 0.944186
vt 0.656250 0.843750
vt 0.500000 0.150000
vt 0.500000 0.837500
vt 0.597222 0.511904
vt 0.569445 0.511904
vt 0.541667 0.511904
vt 0.513889 0.511904
vt 0.486111 0.511904
vt 0.458333 0.511904
vt 0.430556 0.511904
vt 0.402778 0.511904
vt 0.625000 0.511904
vt 0.375000 0.511904
vn 0.499266 0.054178 -0.864753
vn 0.499266 0.054178 -0.864753
vn 0.499835 0.025729 -0.865739
vn 0.499756 0.031219 -0.865603
vn -0.173617 -0.018840 -0.984633
vn -0.173617 -0.018840 -0.984633
vn -0.173641 -0.008766 -0.984770
vn -0.173638 -0.010956 -0.984749
vn -0.763411 -0.082842 -0.640578
vn -0.763411 -0.082842 -0.640578
vn -0.765409 -0.040731 -0.642254
vn -0.765202 -0.046884 -0.642081
vn -0.994164 -0.107883 -0.000000
vn -0.994164 -0.107883 -0.000000
vn -0.998348 -0.057463 -0.000000
vn -0.998348 -0.057463 -0.000000
vn -0.763411 -0.082842 0.640578
vn -0.763411 -0.082842 0.640578
vn -0.765202 -0.046884 0.642081
vn -0.765409 -0.040731 0.642254
vn -0.173617 -0.018840 0.984633
vn -0.173617 -0.018840 0.984633
vn -0.173638 -0.010956 0.984749
vn -0.173642 -0.008766 0.984770
vn 0.499266 0.054178 0.864753
vn 0.499266 0.054178 0.864753
vn 0.499756 0.031219 0.865603
vn 0.499835 0.025729 0.865739
vn 0.934845 0.101446 0.340256
vn 0.934845 0.101446 0.340256
vn 0.938223 0.055909 0.341485
vn 0.938424 0.051942 0.341558
vn 0.934845 0.101446 -0.340255
vn 0.934845 0.101446 -0.340255
vn 0.938424 0.051942 -0.341558
vn 0.938223 0.055909 -0.341485
vn 0.000000 -1.000000 0.000000
vn 0.000000 -1.000000 0.000000
vn 0.000000 -1.000000 0.000000
vn 0.000000 -1.000000 0.000000
vn 0.000000 -1.000000 0.000000
vn 0.000000 -1.000000 0.000000
vn 0.000000 -1.000000 0.000000
vn 0.000000 -1.000000 0.000000
vn 0.000000 -1.000000 0.000000
vn 0.000000 -1.000000 0.000000
vn 0.000000 1.000000 0.000000
vn 0.000000 1.000000 0.000000
vn 0.000000 1.000000 0.000000
vn 0.000000 1.000000 0.000000
vn 0.000000 1.000000 0.000000
vn 0.000000 1.000000 0.000000
vn 0.000000 1.000000 0.000000
vn 0.000000 1.000000 0.000000
vn 0.000000 1.000000 0.000000
vn 0.000000 1.000000 0.000000
vn 0.939693 0.000000 0.342020
vn 0.939693 0.000000 0.342020
vn 0.500000 0.000000 0.866025
vn 0.500000 0.000000 0.866025
vn -0.173648 0.000000 0.984808
vn -0.173648 0.000000 0.984808
vn -0.766044 0.000000 0.642788
vn -0.766044 0.000000 0.642788
vn -1.000000 0.000000 0.000000
vn -1.000000 0.000000 0.000000
vn -0.766044 0.000000 -0.642788
vn -0.766044 0.000000 -0.642788
vn -0.173648 0.000000 -0.984808
vn -0.173648 0.000000 -0.984808
vn 0.500000 0.000000 -0.866025
vn 0.500000 0.000000 -0.866025
vn 0.939693 0.000000 -0.342020
vn 0.939693 0.000000 -0.342020
s 1
g pCylinder1
usemtl initialShadingGroup
f 19/46/65 20/47/66 46/84/67 47/86/68
s 2
f 20/47/69 21/48/70 45/83/71 46/84/72
s 3
f 21/48/73 22/49/74 44/82/75 45/83/76
s 4
f 22/49/77 23/50/78 43/81/79 44/82/80
s 5
f 23/50/81 24/51/82 42/80/83 43/81/84
s 6
f 24/51/85 25/52/86 41/79/87 42/80/88
s 7
f 25/52/89 26/53/90 40/78/91 41/79/92
s 8
f 26/53/93 27/54/94 39/77/95 40/78/96
s 9
f 27/54/97 19/55/98 47/85/99 39/77/100
s 10
f 20/38/101 19/37/102 37/75/103
f 21/39/104 20/38/101 37/75/103
f 22/40/105 21/39/104 37/75/103
f 23/41/106 22/40/105 37/75/103
f 24/42/107 23/41/106 37/75/103
f 25/43/108 24/42/107 37/75/103
f 26/44/109 25/43/108 37/75/103
f 27/45/110 26/44/109 37/75/103
f 19/37/102 27/45/110 37/75/103
s 11
f 28/73/111 29/72/112 38/76/113
f 29/72/112 30/71/114 38/76/113
f 30/71/114 31/70/115 38/76/113
f 31/70/115 32/69/116 38/76/113
f 32/69/116 33/68/117 38/76/113
f 33/68/117 34/67/118 38/76/113
f 34/67/118 35/66/119 38/76/113
f 35/66/119 36/74/120 38/76/113
f 36/74/120 28/73/111 38/76/113
s 8
f 40/78/96 39/77/95 36/64/121 35/63/122
s 7
f 41/79/92 40/78/91 35/63/123 34/62/124
s 6
f 42/80/88 41/79/87 34/62/125 33/61/126
s 5
f 43/81/84 42/80/83 33/61/127 32/60/128
s 4
f 44/82/80 43/81/79 32/60/129 31/59/130
s 3
f 45/83/76 44/82/75 31/59/131 30/58/132
s 2
f 46/84/72 45/83/71 30/58/133 29/57/134
s 1
f 47/86/68 46/84/67 29/57/135 28/56/136
s 9
f 39/77/100 47/85/99 28/65/137 36/64/138
g default
v 0.499122 3.957162 -1.584120
v -1.141751 3.923050 -1.584120
v -1.962189 4.203807 -0.162775
v -1.141752 3.923050 1.258570
v 0.393915 4.198602 1.258571
v 1.319559 4.495145 -0.162775
v -0.389538 7.221853 -0.162775
vt 0.625000 0.033494
vt 0.375000 0.033494
vt 0.250000 0.250000
vt 0.375000 0.466506
vt 0.625000 0.466506
vt 0.750000 0.250000
vt 0.250000 0.500000
vt 0.333333 0.500000
vt 0.416667 0.500000
vt 0.500000 0.500000
vt 0.583333 0.500000
vt 0.666667 0.500000
vt 0.750000 0.500000
vt 0.500000 1.000000
vn 0.091133 -0.994728 0.047024
vn 0.091133 -0.994728 0.047024
vn 0.091133 -0.994728 0.047024
vn 0.091133 -0.994728 0.047024
vn 0.091133 -0.994728 0.047024
vn 0.091133 -0.994728 0.047024
vn -0.008259 0.397274 -0.917663
vn -0.008259 0.397274 -0.917663
vn -0.008259 0.397274 -0.917663
vn -0.759378 0.395699 -0.516495
vn -0.759378 0.395699 -0.516495
vn -0.759379 0.395699 -0.516495
vn -0.759379 0.395699 0.516494
vn -0.759379 0.395699 0.516494
vn -0.759379 0.395699 0.516494
vn -0.073333 0.408691 0.909722
vn -0.073333 0.408691 0.909722
vn -0.073333 0.408691 0.909722
vn 0.706325 0.442724 0.552359
vn 0.706325 0.442724 0.552359
vn 0.706325 0.442724 0.552359
vn 0.697370 0.437110 -0.567987
vn 0.697370 0.437111 -0.567987
vn 0.697370 0.437111 -0.567987
s off
g pCone3
usemtl initialShadingGroup
f 48/87/139 53/92/140 52/91/141 51/90/142 50/89/143 49/88/144
f 48/93/145 49/94/146 54/100/147
f 49/94/148 50/95/149 54/100/150
f 50/95/151 51/96/152 54/100/153
f 51/96/154 52/97/155 54/100/156
f 52/97/157 53/98/158 54/100/159
f 53/98/160 48/99/161 54/100/162
